<svg width="256" height="256" viewBox="0 0 256 256" fill="none" xmlns="http://www.w3.org/2000/svg">
<rect width="256" height="256" rx="48" fill="url(#paint0_linear_23_40)"/>
<path d="M148.64 127.998C148.64 125.052 149.846 122.493 151.948 119.738C154.023 117.018 157.11 113.936 161.08 109.966L161.553 109.492C165.523 105.522 168.606 102.435 171.326 100.36C174.08 98.2581 176.639 97.0523 179.584 97.0522C182.53 97.0522 185.089 98.258 187.844 100.36C190.564 102.435 193.646 105.522 197.616 109.492L198.09 109.966C202.06 113.936 205.147 117.018 207.222 119.738C209.324 122.493 210.53 125.052 210.53 127.998C210.53 130.942 209.324 133.502 207.222 136.256C205.147 138.976 202.06 142.059 198.09 146.029L197.616 146.502C193.646 150.472 190.564 153.559 187.844 155.634C185.089 157.736 182.53 158.942 179.584 158.942C176.639 158.942 174.08 157.736 171.326 155.634C168.606 153.559 165.523 150.472 161.553 146.502L161.08 146.029C157.11 142.059 154.023 138.976 151.948 136.256C149.846 133.502 148.64 130.943 148.64 127.998Z" fill="url(#paint1_linear_23_40)" stroke="url(#paint2_radial_23_40)" stroke-width="3"/>
<path d="M97.0564 179.585C97.0564 176.64 98.2622 174.08 100.364 171.325C102.439 168.605 105.526 165.524 109.496 161.554L109.969 161.079C113.94 157.109 117.022 154.023 119.742 151.947C122.497 149.846 125.056 148.64 128.001 148.64C130.946 148.64 133.506 149.845 136.26 151.947C138.981 154.023 142.062 157.109 146.032 161.079L146.507 161.554C150.476 165.524 153.563 168.605 155.638 171.325C157.74 174.08 158.946 176.64 158.946 179.585C158.946 182.53 157.74 185.089 155.638 187.844C153.563 190.564 150.477 193.646 146.507 197.616L146.032 198.09C142.062 202.06 138.981 205.146 136.26 207.222C133.506 209.323 130.946 210.529 128.001 210.529C125.056 210.529 122.497 209.323 119.742 207.222C117.022 205.146 113.94 202.06 109.969 198.09L109.496 197.616C105.526 193.646 102.439 190.564 100.364 187.844C98.2623 185.089 97.0565 182.53 97.0564 179.585Z" fill="url(#paint3_linear_23_40)" stroke="url(#paint4_radial_23_40)" stroke-width="3"/>
<path d="M45.4709 127.998C45.4709 125.052 46.6768 122.493 48.7786 119.738C50.8539 117.018 53.9406 113.936 57.9104 109.966L58.384 109.492C62.3541 105.522 65.4364 102.435 68.1565 100.36C70.9111 98.2581 73.4703 97.0523 76.4153 97.0522C79.3604 97.0522 81.9203 98.258 84.675 100.36C87.3951 102.435 90.4767 105.522 94.4465 109.492L94.9211 109.966C98.891 113.936 101.978 117.018 104.053 119.738C106.155 122.493 107.361 125.052 107.361 127.998C107.361 130.942 106.155 133.502 104.053 136.256C101.978 138.976 98.8911 142.059 94.9211 146.029L94.4465 146.502C90.4767 150.472 87.3951 153.559 84.675 155.634C81.9203 157.736 79.3604 158.942 76.4153 158.942C73.4702 158.942 70.9112 157.736 68.1565 155.634C65.4364 153.559 62.354 150.472 58.384 146.502L57.9104 146.029C53.9405 142.059 50.8539 138.976 48.7786 136.256C46.6769 133.502 45.471 130.943 45.4709 127.998Z" fill="url(#paint5_linear_23_40)" stroke="url(#paint6_radial_23_40)" stroke-width="3"/>
<path d="M97.0564 76.416C97.0564 73.4709 98.2622 70.911 100.364 68.1562C102.439 65.4362 105.526 62.3546 109.496 58.3848L109.969 57.9102C113.94 53.9401 117.022 50.8537 119.742 48.7783C122.497 46.6766 125.056 45.4707 128.001 45.4707C130.946 45.4707 133.506 46.6765 136.26 48.7783C138.981 50.8537 142.062 53.9403 146.032 57.9102L146.507 58.3848C150.476 62.3546 153.563 65.4362 155.638 68.1562C157.74 70.911 158.946 73.4709 158.946 76.416C158.946 79.361 157.74 81.9202 155.638 84.6748C153.563 87.3949 150.477 90.4773 146.507 94.4473L146.032 94.9209C142.062 98.8907 138.981 101.977 136.26 104.053C133.506 106.155 130.946 107.36 128.001 107.36C125.056 107.36 122.497 106.155 119.742 104.053C117.022 101.977 113.939 98.8909 109.969 94.9209L109.496 94.4473C105.526 90.4774 102.439 87.3949 100.364 84.6748C98.2623 81.9202 97.0565 79.361 97.0564 76.416Z" fill="url(#paint7_linear_23_40)" stroke="url(#paint8_radial_23_40)" stroke-width="3"/>
<ellipse cx="128" cy="127.998" rx="11.9444" ry="11.9445" fill="url(#paint9_linear_23_40)"/>
<defs>
<linearGradient id="paint0_linear_23_40" x1="128" y1="0" x2="128" y2="256" gradientUnits="userSpaceOnUse">
<stop stop-color="#101721"/>
<stop offset="0.644231" stop-color="#202755"/>
<stop offset="1" stop-color="#203760"/>
</linearGradient>
<linearGradient id="paint1_linear_23_40" x1="145.169" y1="162.413" x2="214" y2="93.5821" gradientUnits="userSpaceOnUse">
<stop stop-color="#F093FB"/>
<stop offset="1" stop-color="#F5576C"/>
</linearGradient>
<radialGradient id="paint2_radial_23_40" cx="0" cy="0" r="1" gradientUnits="userSpaceOnUse" gradientTransform="translate(179.585 127.997) rotate(90) scale(34.4154 34.4152)">
<stop stop-color="white" stop-opacity="0"/>
<stop offset="1" stop-color="white" stop-opacity="0.48"/>
</radialGradient>
<linearGradient id="paint3_linear_23_40" x1="93.5857" y1="214" x2="162.417" y2="145.169" gradientUnits="userSpaceOnUse">
<stop stop-color="#667EEA"/>
<stop offset="1" stop-color="#764BA2"/>
</linearGradient>
<radialGradient id="paint4_radial_23_40" cx="0" cy="0" r="1" gradientUnits="userSpaceOnUse" gradientTransform="translate(128.001 179.585) rotate(90) scale(34.4154 34.4153)">
<stop stop-color="white" stop-opacity="0"/>
<stop offset="1" stop-color="white" stop-opacity="0.48"/>
</radialGradient>
<linearGradient id="paint5_linear_23_40" x1="42.0002" y1="162.413" x2="110.831" y2="93.5821" gradientUnits="userSpaceOnUse">
<stop stop-color="#4FACFE"/>
<stop offset="1" stop-color="#00F2FE"/>
</linearGradient>
<radialGradient id="paint6_radial_23_40" cx="0" cy="0" r="1" gradientUnits="userSpaceOnUse" gradientTransform="translate(76.4155 127.997) rotate(90) scale(34.4154 34.4153)">
<stop stop-color="white" stop-opacity="0"/>
<stop offset="1" stop-color="white" stop-opacity="0.48"/>
</radialGradient>
<linearGradient id="paint7_linear_23_40" x1="93.5857" y1="110.831" x2="162.417" y2="42.0005" gradientUnits="userSpaceOnUse">
<stop stop-color="#F6D365"/>
<stop offset="1" stop-color="#FDA085"/>
</linearGradient>
<radialGradient id="paint8_radial_23_40" cx="0" cy="0" r="1" gradientUnits="userSpaceOnUse" gradientTransform="translate(128.001 76.4156) rotate(90) scale(34.4154 34.4153)">
<stop stop-color="white" stop-opacity="0"/>
<stop offset="1" stop-color="white" stop-opacity="0.48"/>
</radialGradient>
<linearGradient id="paint9_linear_23_40" x1="116.056" y1="116.054" x2="139.945" y2="139.943" gradientUnits="userSpaceOnUse">
<stop stop-color="#93F9B9"/>
<stop offset="1" stop-color="#1D976C"/>
</linearGradient>
</defs>
</svg>
