<svg width="172" height="172" viewBox="0 0 172 172" fill="none" xmlns="http://www.w3.org/2000/svg">
<path d="M106.64 85.9976C106.64 83.0525 107.846 80.4925 109.948 77.7378C112.023 75.0178 115.11 71.9361 119.079 67.9663L119.553 67.4917C123.523 63.5216 126.605 60.4353 129.325 58.3599C132.08 56.2581 134.639 55.0523 137.584 55.0522C140.529 55.0522 143.089 56.258 145.844 58.3599C148.564 60.4352 151.646 63.5219 155.615 67.4917L156.09 67.9663C160.06 71.9361 163.147 75.0177 165.222 77.7378C167.324 80.4925 168.53 83.0524 168.53 85.9976C168.529 88.9425 167.324 91.5017 165.222 94.2563C163.147 96.9765 160.06 100.059 156.09 104.029L155.615 104.502C151.646 108.472 148.564 111.559 145.844 113.634C143.089 115.736 140.529 116.942 137.584 116.942C134.639 116.942 132.08 115.736 129.325 113.634C126.605 111.559 123.523 108.472 119.553 104.502L119.079 104.029C115.109 100.059 112.023 96.9764 109.948 94.2563C107.846 91.5017 106.64 88.9425 106.64 85.9976Z" fill="url(#paint0_linear_23_46)" stroke="url(#paint1_radial_23_46)" stroke-width="3"/>
<path d="M55.0562 137.585C55.0561 134.64 56.262 132.08 58.3638 129.325C60.4391 126.605 63.5258 123.524 67.4956 119.554L67.9692 119.079C71.9393 115.109 75.0216 112.023 77.7417 109.947C80.4964 107.846 83.0555 106.64 86.0005 106.64C88.9456 106.64 91.5055 107.845 94.2603 109.947C96.9803 112.023 100.062 115.109 104.032 119.079L104.506 119.554C108.476 123.524 111.563 126.605 113.638 129.325C115.74 132.08 116.946 134.64 116.946 137.585C116.946 140.53 115.74 143.089 113.638 145.844C111.563 148.564 108.476 151.646 104.506 155.616L104.032 156.09C100.062 160.06 96.9803 163.146 94.2603 165.222C91.5055 167.323 88.9456 168.529 86.0005 168.529C83.0554 168.529 80.4964 167.323 77.7417 165.222C75.0216 163.146 71.9393 160.06 67.9692 156.09L67.4956 155.616C63.5257 151.646 60.4391 148.564 58.3638 145.844C56.2621 143.089 55.0562 140.53 55.0562 137.585Z" fill="url(#paint2_linear_23_46)" stroke="url(#paint3_radial_23_46)" stroke-width="3"/>
<path d="M3.4707 85.9976C3.4707 83.0525 4.67654 80.4925 6.77832 77.7378C8.85369 75.0178 11.9404 71.9361 15.9102 67.9663L16.3838 67.4917C20.3538 63.5216 23.4361 60.4353 26.1562 58.3599C28.9109 56.2581 31.47 55.0523 34.415 55.0522C37.3602 55.0522 39.92 56.258 42.6748 58.3599C45.3948 60.4352 48.4765 63.5219 52.4463 67.4917L52.9209 67.9663C56.8907 71.9361 59.9774 75.0177 62.0527 77.7378C64.1545 80.4925 65.3604 83.0524 65.3604 85.9976C65.3603 88.9425 64.1544 91.5017 62.0527 94.2563C59.9773 96.9765 56.8909 100.059 52.9209 104.029L52.4463 104.502C48.4765 108.472 45.3948 111.559 42.6748 113.634C39.9201 115.736 37.3602 116.942 34.415 116.942C31.47 116.942 28.911 115.736 26.1562 113.634C23.4361 111.559 20.3538 108.472 16.3838 104.502L15.9102 104.029C11.9403 100.059 8.8537 96.9764 6.77832 94.2563C4.67661 91.5017 3.47079 88.9425 3.4707 85.9976Z" fill="url(#paint4_linear_23_46)" stroke="url(#paint5_radial_23_46)" stroke-width="3"/>
<path d="M55.0562 34.416C55.0561 31.4709 56.262 28.911 58.3638 26.1562C60.4391 23.4362 63.5258 20.3546 67.4956 16.3848L67.9692 15.9102C71.9393 11.9401 75.0216 8.85373 77.7417 6.77832C80.4964 4.6766 83.0555 3.47075 86.0005 3.4707C88.9456 3.4707 91.5055 4.6765 94.2603 6.77832C96.9803 8.8537 100.062 11.9403 104.032 15.9102L104.506 16.3848C108.476 20.3546 111.563 23.4362 113.638 26.1562C115.74 28.911 116.946 31.4709 116.946 34.416C116.946 37.361 115.74 39.9202 113.638 42.6748C111.563 45.3949 108.476 48.4773 104.506 52.4473L104.032 52.9209C100.062 56.8907 96.9803 59.9773 94.2603 62.0527C91.5055 64.1545 88.9456 65.3604 86.0005 65.3604C83.0554 65.3603 80.4964 64.1545 77.7417 62.0527C75.0216 59.9773 71.9393 56.8909 67.9692 52.9209L67.4956 52.4473C63.5257 48.4774 60.4391 45.3949 58.3638 42.6748C56.2621 39.9202 55.0562 37.361 55.0562 34.416Z" fill="url(#paint6_linear_23_46)" stroke="url(#paint7_radial_23_46)" stroke-width="3"/>
<ellipse cx="85.9999" cy="85.9984" rx="11.9444" ry="11.9445" fill="url(#paint8_linear_23_46)"/>
<defs>
<linearGradient id="paint0_linear_23_46" x1="103.169" y1="120.413" x2="172" y2="51.5821" gradientUnits="userSpaceOnUse">
<stop stop-color="#F093FB"/>
<stop offset="1" stop-color="#F5576C"/>
</linearGradient>
<radialGradient id="paint1_radial_23_46" cx="0" cy="0" r="1" gradientUnits="userSpaceOnUse" gradientTransform="translate(137.584 85.9972) rotate(90) scale(34.4154 34.4152)">
<stop stop-color="white" stop-opacity="0"/>
<stop offset="1" stop-color="white" stop-opacity="0.48"/>
</radialGradient>
<linearGradient id="paint2_linear_23_46" x1="51.5854" y1="172" x2="120.416" y2="103.169" gradientUnits="userSpaceOnUse">
<stop stop-color="#667EEA"/>
<stop offset="1" stop-color="#764BA2"/>
</linearGradient>
<radialGradient id="paint3_radial_23_46" cx="0" cy="0" r="1" gradientUnits="userSpaceOnUse" gradientTransform="translate(86.0007 137.585) rotate(90) scale(34.4154 34.4153)">
<stop stop-color="white" stop-opacity="0"/>
<stop offset="1" stop-color="white" stop-opacity="0.48"/>
</radialGradient>
<linearGradient id="paint4_linear_23_46" x1="0" y1="120.413" x2="68.8308" y2="51.5821" gradientUnits="userSpaceOnUse">
<stop stop-color="#4FACFE"/>
<stop offset="1" stop-color="#00F2FE"/>
</linearGradient>
<radialGradient id="paint5_radial_23_46" cx="0" cy="0" r="1" gradientUnits="userSpaceOnUse" gradientTransform="translate(34.4153 85.9972) rotate(90) scale(34.4154 34.4153)">
<stop stop-color="white" stop-opacity="0"/>
<stop offset="1" stop-color="white" stop-opacity="0.48"/>
</radialGradient>
<linearGradient id="paint6_linear_23_46" x1="51.5854" y1="68.8311" x2="120.416" y2="0.000546308" gradientUnits="userSpaceOnUse">
<stop stop-color="#F6D365"/>
<stop offset="1" stop-color="#FDA085"/>
</linearGradient>
<radialGradient id="paint7_radial_23_46" cx="0" cy="0" r="1" gradientUnits="userSpaceOnUse" gradientTransform="translate(86.0007 34.4156) rotate(90) scale(34.4154 34.4153)">
<stop stop-color="white" stop-opacity="0"/>
<stop offset="1" stop-color="white" stop-opacity="0.48"/>
</radialGradient>
<linearGradient id="paint8_linear_23_46" x1="74.0554" y1="74.054" x2="97.9444" y2="97.9428" gradientUnits="userSpaceOnUse">
<stop stop-color="#93F9B9"/>
<stop offset="1" stop-color="#1D976C"/>
</linearGradient>
</defs>
</svg>
