<svg xmlns="http://www.w3.org/2000/svg" width="1257" height="221" viewBox="0 0 1257 221" fill="none">
  <path d="M1257 62.2639C1253.9 66.2138 1250.69 68.9163 1249.25 72.4505C1245.01 82.5332 1237.47 84.716 1227.45 83.8845C1218.57 83.1568 1209.59 83.3648 1200.6 83.2608C1192.85 83.1569 1185.62 82.1174 1180.25 75.3609C1177.05 71.3071 1172.19 70.4755 1167.13 71.0992C1163 71.6189 1158.87 71.411 1154.74 71.8268C1144.1 72.9702 1134.18 71.411 1127.26 64.5507C1114.97 65.6941 1104.13 66.8374 1091.53 67.9808C1089.15 70.0597 1085.64 73.2821 1081.92 76.1925C1078.82 78.6872 1075.31 80.7661 1070.97 83.7805C1077.89 89.8094 1085.84 86.1713 1092.15 89.6014C1094.93 78.1675 1097.52 75.5688 1103.2 78.3754C1105.16 79.3109 1107.85 82.9489 1107.33 84.1963C1104.23 91.6803 1109.6 94.9027 1114.04 97.3973C1119.52 100.516 1125.71 100.516 1131.4 96.5658C1140.07 90.537 1141 90.537 1146.17 95.9421C1148.54 98.4368 1150.4 101.243 1152.36 103.842C1170.75 100.516 1172.71 101.035 1184.18 113.613C1177.88 113.197 1172.71 112.262 1167.65 112.677C1162.9 113.093 1157.94 116.419 1153.6 115.588C1135.63 111.95 1118.07 118.394 1100.31 116.627C1085.95 115.172 1071.59 113.925 1059.92 102.179C1049.8 103.322 1039.57 106.752 1028.21 105.921C1013.75 104.777 1000.11 111.638 990.405 123.799C986.17 129.101 986.17 132.635 990.508 140.431C991.438 142.198 992.264 143.965 993.297 146.044C986.273 149.578 979.663 152.904 972.639 156.334C971.606 153.112 970.883 150.617 970.16 148.123C960.038 154.255 960.038 154.359 946.094 155.503C939.793 156.023 934.732 158.205 929.361 162.155C919.032 169.847 907.877 177.227 893.623 173.797C887.425 164.65 898.477 161.012 899.923 154.048C897.857 148.642 893.313 146.46 888.561 148.435C881.021 151.657 874.101 150.825 866.561 148.746C849.415 143.861 831.546 143.133 814.09 138.975C798.08 135.233 780.934 138.56 770.811 155.503C769.468 157.686 767.299 159.453 765.027 161.947C752.632 156.023 752.116 144.692 750.463 133.57C748.087 132.219 745.815 129.828 743.439 129.62C727.016 128.269 710.697 127.23 694.274 126.502C689.212 126.294 685.184 129.309 682.602 133.882C679.71 138.768 680.743 143.029 684.255 147.187C684.978 148.123 684.978 149.682 685.391 150.929C665.766 159.661 665.766 159.349 644.798 159.141C639.014 159.037 633.229 162.883 627.342 162.883C622.074 162.883 619.182 164.026 615.257 167.976C609.68 173.693 602.139 177.643 594.806 181.385C585.716 185.959 576.214 189.493 566.814 193.443C563.612 183.88 563.612 180.969 568.777 176.084C573.322 171.822 578.589 168.496 583.444 164.65C592.43 157.582 591.604 151.345 580.965 146.148C570.946 141.262 560.72 138.352 549.358 138.664C537.067 138.975 524.569 138.04 512.277 136.793C507.216 136.273 502.878 136.585 498.436 138.872C491.103 142.51 483.666 145.836 476.539 149.266C473.44 155.295 477.572 160.18 478.088 165.378C478.605 170.471 476.746 175.772 476.023 180.554C481.91 185.335 485.422 179.098 489.76 178.994C491.929 178.89 494.821 180.658 496.061 182.529C498.023 185.439 495.648 189.701 492.136 190.636C483.769 192.819 475.61 191.988 468.379 187.206C461.562 182.736 454.848 182.84 446.895 183.672C434.087 185.023 420.763 185.439 409.814 175.46C407.438 173.381 403.617 172.446 400.311 172.03C384.611 170.055 369.221 165.689 353.211 167.353C343.709 168.288 334.619 165.066 324.703 166.209C308.9 168.08 295.886 175.46 282.664 182.529C270.373 189.077 257.772 193.235 244.55 196.353C240.316 189.389 240.212 186.894 244.447 184.815C246.926 183.672 249.508 182.113 252.091 181.905C262.213 180.865 266.138 174.733 266.655 164.442C251.781 156.542 236.907 151.449 219.554 156.438C211.911 158.621 205.61 161.843 199.723 166.729C196.108 169.847 192.803 173.797 188.671 175.876C176.379 182.217 164.398 188.765 153.656 197.601C148.181 202.07 141.364 203.941 134.237 199.472C131.655 192.819 133.411 185.959 139.402 183.672C150.454 179.41 155.721 166.417 168.633 165.378C170.182 165.274 171.731 162.779 173.074 161.22C176.07 157.686 175.76 152.488 172.041 150.409C167.806 148.123 163.468 145.316 158.923 144.796C148.078 143.549 137.026 142.925 126.077 143.341C121.739 143.549 117.298 146.875 113.373 149.474C104.077 155.399 95.0905 161.739 85.8977 167.872C71.1273 177.643 56.1502 187.206 41.5863 197.289C28.6751 206.228 15.764 215.167 1.09686 220.884C-1.69196 217.038 1.51012 215.895 3.26605 214.128C6.26145 211.321 9.35998 208.723 12.1488 205.708C15.8672 201.654 18.7594 196.769 22.7877 193.235C37.868 180.242 53.0515 167.249 68.7516 155.087C75.3621 149.994 77.0149 143.029 81.5596 135.753C76.3951 133.258 72.8833 131.18 69.1649 129.932C64.0004 128.165 58.5259 127.022 53.2581 125.567C42.2061 122.552 35.4925 115.484 33.0135 104.362C31.8773 99.1644 30.5344 93.9672 29.5015 89.4975C33.6331 85.2358 36.9383 86.8989 40.037 88.2502C65.8594 99.4763 93.0248 101.763 120.81 101.347C131.035 101.243 139.505 98.8526 146.116 90.3291C154.172 80.0385 165.018 74.4254 178.755 73.6978C183.093 67.2532 186.812 59.8731 196.521 58.5218C205.817 57.1706 212.221 50.3101 217.799 43.034C220.897 38.9801 224.099 35.342 229.677 36.4854C235.668 37.6288 242.072 45.0089 242.278 51.3496C242.485 56.7548 241.762 62.1599 241.245 69.2282C246.926 66.6296 251.161 64.7585 256.222 62.3678C260.87 64.9664 266.138 67.8769 271.716 70.9953C280.702 64.7586 289.791 61.1204 300.843 62.5757C313.135 64.2388 323.67 59.0416 332.243 49.9983C335.962 46.0484 340.094 42.5142 344.432 38.4604C349.39 41.9945 353.521 45.5287 358.066 48.1273C364.986 52.0772 369.428 57.3784 372.836 64.7586C379.24 78.5833 381.926 79.3109 396.903 78.3754C406.405 77.8556 415.908 78.2714 425.721 78.2714C429.852 72.1387 433.674 66.5256 437.909 60.081C456.398 62.056 473.234 58.5218 485.422 43.5537C496.267 50.1023 496.267 50.1023 498.643 70.4756C493.892 77.0241 484.079 78.3754 480.671 88.2502C501.535 96.15 519.508 84.7161 537.273 82.949C542.438 76.5044 543.058 70.4756 544.194 64.2388C545.846 54.6759 550.804 49.7904 559.274 50.8299C571.256 52.2851 582.308 51.4536 593.463 46.3602C599.247 43.7616 605.754 45.8405 611.332 48.8549C616.806 51.8693 621.868 55.6113 627.445 58.21C634.882 61.7441 642.422 65.5901 650.272 67.3572C664.32 70.4756 678.677 72.3466 692.931 74.4255C696.236 74.9452 700.471 75.4649 703.053 73.9057C716.481 65.798 732.801 62.2639 742.51 48.4391C746.125 43.2419 749.844 38.3564 756.557 37.4209C771.328 49.4786 771.328 49.4786 779.074 64.3428C776.286 70.4755 773.187 77.128 770.501 83.0529C773.394 90.1212 778.661 89.3936 783.309 89.4975C792.709 89.7054 802.211 89.6014 811.507 89.6014C819.461 71.3071 819.357 71.0992 837.64 59.3534C843.217 55.8193 846.523 51.6614 848.382 45.1129C851.067 35.9657 859.847 29.8329 868.523 31.4961C892.28 36.1736 911.388 25.6751 930.497 14.3451C935.868 11.1228 940.929 7.5886 948.676 8.31622C955.7 14.0332 962.104 20.6857 962.104 31.6C962.104 37.6288 964.996 41.8906 969.954 45.3208C974.395 48.4391 978.32 52.3891 983.175 56.4429C993.504 56.4429 1004.45 56.4429 1017.16 56.4429C1018.5 55.0917 1020.46 51.8693 1023.25 50.518C1038.74 43.3458 1045.97 31.6 1042.36 12.7859C1058.16 17.5674 1070.76 9.87542 1084.4 9.25175C1097.83 8.62808 1110.94 3.84657 1128.5 0.000596891C1130.36 -0.103348 1128.5 13.4096 1138.11 8.62811C1139.14 8.10838 1143.79 12.2661 1144.72 15.0727C1147.1 22.1409 1148.44 29.625 1150.5 38.3564C1155.98 41.3708 1162.38 44.905 1169.72 48.8549C1173.54 44.5931 1177.05 40.6432 1180.35 36.9012C1182.11 37.8367 1183.97 38.1486 1184.18 39.0841C1186.24 46.1523 1188.51 52.0772 1197.91 51.3496C1204.42 50.8299 1204.83 56.7548 1205.97 61.4323C1209.79 63.1994 1210.52 59.5613 1212.06 57.7942C1217.13 51.6614 1223.43 50.518 1230.66 53.0127C1238.82 55.9232 1247.08 58.8337 1257 62.2639ZM852.617 111.638C861.19 111.638 866.561 110.183 870.279 111.95C878.542 115.9 887.219 116.211 895.792 117.459C900.44 118.186 905.604 118.186 909.633 120.265C919.032 124.943 927.192 121.305 935.042 117.251C941.549 113.821 947.333 108.831 953.324 104.362C957.559 101.139 958.592 96.3579 955.39 91.6804C953.221 88.4581 949.812 85.9634 947.23 83.4687C932.563 90.0173 932.563 90.0173 908.496 79.103C901.989 80.974 895.585 83.2608 888.871 84.6121C877.819 86.7949 868.523 92.7198 859.434 98.7486C856.748 100.412 855.922 105.089 852.617 111.638ZM461.975 125.67C458.36 123.488 455.468 120.161 453.092 120.473C444.003 121.721 435.533 118.914 426.754 117.563C422.725 116.939 418.49 116.315 414.565 116.731C400.828 118.082 390.292 124.839 382.959 136.585C385.438 145.212 376.451 145.108 373.249 149.474C376.142 155.295 381.099 154.359 385.644 152.904C388.02 152.177 389.569 149.162 391.738 147.603C397.729 143.341 400.828 143.757 404.236 150.825C407.025 156.646 410.434 159.037 417.148 158.621C417.148 156.23 417.354 154.255 417.044 152.384C416.631 149.786 414.875 147.187 419.317 145.212C424.998 147.083 431.298 149.266 438.115 151.553C445.346 143.757 452.576 135.857 461.975 125.67ZM214.287 117.251C225.132 113.821 236.081 110.702 246.926 106.856C250.541 105.609 251.161 98.9565 247.856 96.3579C244.861 93.8632 241.142 90.9527 237.527 90.6409C229.47 89.9133 221.207 90.3291 213.151 90.9527C202.099 91.7843 191.873 95.7342 182.474 101.347C180.511 102.491 178.445 106.025 178.858 107.792C179.581 110.598 182.267 113.093 184.436 115.38C185.262 116.211 187.225 116.731 188.258 116.315C196.831 113.405 205.404 112.989 214.287 117.251ZM280.082 124.527C292.58 132.219 304.149 132.635 315.201 129.205C323.154 126.71 330.591 124.839 338.957 125.359C344.845 125.774 348.46 121.721 348.357 116.939C348.253 111.326 345.361 106.752 340.817 106.129C318.506 102.906 297.228 103.738 280.082 124.527ZM570.533 116.939C583.96 122.864 583.96 122.864 596.355 122.864C598.318 122.864 601.313 122.344 602.242 123.488C609.473 132.531 619.079 120.785 626.722 126.294C626.929 126.502 629.924 124.007 630.441 122.448C631.68 118.082 630.647 113.821 626.309 111.95C612.262 105.817 597.388 103.426 582.204 105.089C576.42 105.713 572.082 109.143 570.533 116.939ZM971.606 104.777C972.536 98.4368 974.395 91.4725 965.719 93.3435C966.132 95.3185 966.132 97.3974 966.958 99.0605C968.094 101.139 970.057 102.906 971.606 104.777ZM1234.17 64.6546C1232.41 66.6295 1230.55 68.2927 1229.52 70.2676C1229.31 70.7874 1231.69 73.5939 1232.93 73.6978C1237.06 74.0097 1240.78 70.8913 1239.54 68.6045C1238.71 67.1493 1236.65 66.4217 1234.17 64.6546ZM848.588 68.1887C850.241 68.8124 851.894 69.4361 853.65 69.8518C853.753 69.8518 854.373 68.5006 854.373 68.3966C852.823 67.4611 851.171 66.6295 849.518 65.694C849.311 66.4217 849.001 66.9414 848.588 68.1887ZM739.101 78.7912C739.205 78.1675 739.411 77.5438 739.205 77.0241C739.101 76.8162 738.172 76.9201 737.655 76.8162C737.655 77.4399 737.449 78.0635 737.655 78.5833C737.655 78.7912 738.585 78.7912 739.101 78.7912Z" fill="#ffffff" stroke="#ffffff"/>
</svg>