<svg width="949" height="130" viewBox="0 0 949 130" fill="none" xmlns="http://www.w3.org/2000/svg">
<path d="M82.3455 69.8413C81.1471 66.7234 81.147 63.2717 82.3455 60.1538C82.8908 58.7352 83.7705 57.4622 84.992 56.0493C86.2038 54.6477 87.8301 53.0227 89.9217 50.9312C92.0134 48.8394 93.6382 47.2133 95.0399 46.0015C96.4527 44.78 97.7258 43.9012 99.1444 43.356C102.262 42.1575 105.714 42.1574 108.832 43.356C110.25 43.9012 111.523 44.7802 112.935 46.0015C114.337 47.2133 115.963 48.8393 118.055 50.9312C120.146 53.0229 121.772 54.6476 122.984 56.0493C124.206 57.4621 125.084 58.7353 125.63 60.1538C126.828 63.2717 126.828 66.7234 125.63 69.8413C125.084 71.2599 124.206 72.5329 122.984 73.9458C121.772 75.3475 120.146 76.9722 118.055 79.064C115.963 81.1558 114.337 82.7818 112.935 83.9937C111.523 85.2151 110.25 86.0948 108.832 86.6401C105.714 87.8386 102.262 87.8385 99.1444 86.6401C97.7258 86.0948 96.4527 85.2152 95.0399 83.9937C93.6382 82.7818 92.0134 81.1557 89.9217 79.064C87.83 76.9723 86.2038 75.3474 84.992 73.9458C83.7705 72.5329 82.8908 71.2599 82.3455 69.8413Z" fill="url(#paint0_linear_23_15)" stroke="url(#paint1_radial_23_15)" stroke-width="3"/>
<path d="M43.358 108.832C42.1595 105.714 42.1595 102.262 43.358 99.144C43.9033 97.7255 44.783 96.4524 46.0044 95.0396C47.2162 93.638 48.8426 92.013 50.9341 89.9214C53.0258 87.8297 54.6506 86.2035 56.0523 84.9917C57.4651 83.7702 58.7382 82.8915 60.1568 82.3462C63.2747 81.1477 66.7264 81.1477 69.8443 82.3462C71.2627 82.8915 72.5351 83.7704 73.9478 84.9917C75.3495 86.2035 76.9751 87.8295 79.0669 89.9214C81.1587 92.0131 82.7848 93.6379 83.9966 95.0395C85.2181 96.4524 86.0968 97.7255 86.6421 99.144C87.8407 102.262 87.8406 105.714 86.6421 108.832C86.0969 110.25 85.2181 111.523 83.9966 112.936C82.7848 114.338 81.1587 115.962 79.0669 118.054C76.9751 120.146 75.3495 121.772 73.9478 122.984C72.535 124.205 71.2628 125.085 69.8443 125.63C66.7264 126.829 63.2747 126.829 60.1568 125.63C58.7382 125.085 57.4652 124.205 56.0523 122.984C54.6506 121.772 53.0259 120.146 50.9341 118.054C48.8424 115.962 47.2163 114.338 46.0044 112.936C44.783 111.523 43.9033 110.25 43.358 108.832Z" fill="url(#paint2_linear_23_15)" stroke="url(#paint3_radial_23_15)" stroke-width="3"/>
<path d="M4.36914 69.8413C3.17072 66.7234 3.17065 63.2717 4.36914 60.1538C4.91444 58.7352 5.79416 57.4622 7.01563 56.0493C8.22741 54.6477 9.85374 53.0227 11.9453 50.9312C14.037 48.8394 15.6618 47.2133 17.0635 46.0015C18.4763 44.78 19.7494 43.9013 21.168 43.356C24.2859 42.1575 27.7376 42.1574 30.8555 43.356C32.2739 43.9012 33.5463 44.7802 34.959 46.0015C36.3607 47.2133 37.9863 48.8393 40.0781 50.9312C42.1699 53.0229 43.796 54.6476 45.0078 56.0493C46.2293 57.4621 47.108 58.7353 47.6533 60.1538C48.8518 63.2717 48.8518 66.7234 47.6533 69.8413C47.108 71.2599 46.2293 72.5329 45.0078 73.9458C43.796 75.3475 42.1699 76.9722 40.0781 79.064C37.9863 81.1558 36.3607 82.7818 34.959 83.9937C33.5462 85.2151 32.274 86.0948 30.8555 86.6401C27.7376 87.8386 24.2859 87.8385 21.168 86.6401C19.7494 86.0948 18.4764 85.2152 17.0635 83.9937C15.6618 82.7818 14.0371 81.1557 11.9453 79.064C9.85362 76.9723 8.22744 75.3475 7.01563 73.9458C5.79414 72.5329 4.91444 71.2599 4.36914 69.8413Z" fill="url(#paint4_linear_23_15)" stroke="url(#paint5_radial_23_15)" stroke-width="3"/>
<path d="M43.3579 30.8552C42.1595 27.7373 42.1594 24.2856 43.3579 21.1677C43.9032 19.7492 44.783 18.4761 46.0044 17.0632C47.2162 15.6616 48.8425 14.0367 50.9341 11.9451C53.0258 9.85335 54.6506 8.22717 56.0523 7.01538C57.4651 5.79392 58.7382 4.91517 60.1568 4.36987C63.2747 3.17142 66.7264 3.17135 69.8443 4.36987C71.2627 4.91515 72.5351 5.79408 73.9478 7.01538C75.3495 8.22723 76.9751 9.8532 79.0669 11.9451C81.1587 14.0368 82.7848 15.6616 83.9966 17.0632C85.2181 18.4761 86.0968 19.7492 86.6421 21.1677C87.8406 24.2857 87.8406 27.7373 86.6421 30.8552C86.0968 32.2738 85.2181 33.5469 83.9966 34.9597C82.7848 36.3614 81.1587 37.9862 79.0669 40.0779C76.9751 42.1697 75.3495 43.7957 73.9478 45.0076C72.535 46.229 71.2628 47.1088 69.8443 47.6541C66.7264 48.8525 63.2747 48.8524 60.1568 47.6541C58.7382 47.1087 57.4652 46.2291 56.0523 45.0076C54.6506 43.7957 53.0259 42.1696 50.9341 40.0779C48.8424 37.9862 47.2162 36.3614 46.0044 34.9597C44.7829 33.5468 43.9032 32.2738 43.3579 30.8552Z" fill="url(#paint6_linear_23_15)" stroke="url(#paint7_radial_23_15)" stroke-width="3"/>
<ellipse cx="64.9996" cy="64.9985" rx="9.02773" ry="9.02777" fill="url(#paint8_linear_23_15)"/>
<path d="M912.613 114.312C902.373 114.312 893.861 110.941 887.077 104.2C880.293 97.4158 876.901 89.0744 876.901 79.1758C876.901 69.3198 880.293 61.0211 887.077 54.2798C893.904 47.4958 902.416 44.1038 912.613 44.1038C922.853 44.1038 931.387 47.4958 938.213 54.2798C945.04 61.0211 948.453 69.3198 948.453 79.1758C948.453 89.0744 945.04 97.4158 938.213 104.2C931.387 110.941 922.853 114.312 912.613 114.312ZM912.677 95.6238C917.115 95.6238 920.912 94.0664 924.069 90.9518C927.227 87.7944 928.805 83.8691 928.805 79.1758C928.805 74.4824 927.205 70.5784 924.005 67.4638C920.848 64.3491 917.072 62.7918 912.677 62.7918C908.197 62.7918 904.379 64.3491 901.221 67.4638C898.107 70.5784 896.549 74.4824 896.549 79.1758C896.549 83.8691 898.107 87.7944 901.221 90.9518C904.379 94.0664 908.197 95.6238 912.677 95.6238Z" fill="black"/>
<path d="M846.219 112.84V45.5117H866.827V112.84H846.219ZM856.587 39.3037C853.259 39.3037 850.422 38.1304 848.075 35.7837C845.771 33.4371 844.619 30.6424 844.619 27.3997C844.619 24.0291 845.793 21.2344 848.139 19.0157C850.486 16.7971 853.302 15.6877 856.587 15.6877C860.043 15.6877 862.902 16.7971 865.163 19.0157C867.425 21.2344 868.555 24.0291 868.555 27.3997C868.555 30.6851 867.425 33.5011 865.163 35.8477C862.902 38.1517 860.043 39.3037 856.587 39.3037Z" fill="black"/>
<path d="M789.889 114.312C780.887 114.312 773.377 111.091 767.361 104.648C761.388 98.1626 758.401 89.8426 758.401 79.6879C758.401 69.3626 761.452 60.8506 767.553 54.1519C773.697 47.4532 781.42 44.1039 790.721 44.1039C794.86 44.1039 798.807 44.9146 802.561 46.5359C806.316 48.1572 809.303 50.4826 811.521 53.5119L811.137 53.1279V21.1919H831.745V112.84H812.481V101.128L814.081 102.728L812.865 103.432C810.647 106.845 807.532 109.512 803.521 111.432C799.511 113.352 794.967 114.312 789.889 114.312ZM795.073 96.9039C799.937 96.9039 803.927 95.2399 807.041 91.9119C810.199 88.5839 811.777 84.4452 811.777 79.4959C811.777 74.3759 810.177 70.1946 806.977 66.9519C803.777 63.7092 799.809 62.0879 795.073 62.0879C790.167 62.0879 786.092 63.6879 782.849 66.8879C779.649 70.0879 778.049 74.2906 778.049 79.4959C778.049 84.7439 779.671 88.9679 782.913 92.1679C786.156 95.3252 790.209 96.9039 795.073 96.9039Z" fill="black"/>
<path d="M708.406 114.312C701.153 114.312 695.436 112.178 691.254 107.912C687.073 103.602 684.982 97.6717 684.982 90.1197V45.5117H705.59V84.6157C705.59 88.4984 706.486 91.5064 708.278 93.6397C710.07 95.7304 712.737 96.7757 716.278 96.7757C720.118 96.7757 723.169 95.4317 725.43 92.7437C727.734 90.0557 728.886 86.7491 728.886 82.8237V45.5117H749.558V112.84H729.59V92.9997L740.022 103.432H729.526C727.393 106.888 724.556 109.576 721.014 111.496C717.516 113.373 713.313 114.312 708.406 114.312Z" fill="black"/>
<path d="M662.692 114.312C656.25 114.312 651.13 112.563 647.332 109.064C643.535 105.565 641.636 100.189 641.636 92.9359V29.1279H662.244V90.5039C662.244 93.1919 662.799 95.0906 663.908 96.1999C665.06 97.2666 666.682 97.7999 668.772 97.7999C669.882 97.7999 670.906 97.7146 671.844 97.5439C672.826 97.3733 673.892 97.0959 675.044 96.7119C676.196 96.3279 676.772 96.1359 676.772 96.1359V111.496C676.772 111.496 675.94 111.795 674.276 112.392C672.655 112.947 670.863 113.395 668.9 113.736C666.938 114.12 664.868 114.312 662.692 114.312ZM632.42 62.4079V45.5119H676.644V62.4079H632.42Z" fill="black"/>
<path d="M593.496 114.312C586.84 114.312 581.102 113.522 576.28 111.944C571.459 110.365 567.406 108.082 564.12 105.096C560.835 102.066 558.36 98.7811 556.696 95.2397C555.032 91.6984 554.2 89.9277 554.2 89.9277L573.336 83.0797C573.336 83.0797 573.827 84.1251 574.808 86.2157C575.79 88.3064 577.155 90.1411 578.904 91.7197C580.696 93.2984 582.83 94.5784 585.304 95.5597C587.779 96.4984 590.595 96.9677 593.752 96.9677C597.848 96.9677 601.07 96.0717 603.416 94.2797C605.763 92.4877 606.936 89.9704 606.936 86.7277C606.936 83.4851 605.571 81.0104 602.84 79.3037C600.152 77.5544 594.712 75.5704 586.52 73.3517C576.152 70.4931 568.856 66.8237 564.632 62.3437C560.451 57.8637 558.36 52.4451 558.36 46.0877C558.36 38.3224 561.475 31.9864 567.704 27.0797C573.934 22.1731 582.232 19.7197 592.6 19.7197C598.403 19.7197 603.352 20.3811 607.448 21.7037C611.587 22.9837 615.214 24.9891 618.328 27.7197C621.486 30.4077 623.875 33.2237 625.496 36.1677C627.118 39.1117 627.928 40.5837 627.928 40.5837L609.56 47.4957C609.56 47.4957 609.027 46.6424 607.96 44.9357C606.936 43.2291 605.699 41.7357 604.248 40.4557C602.798 39.1757 601.176 38.2371 599.384 37.6397C597.592 37.0424 595.48 36.7437 593.048 36.7437C589.379 36.7437 586.392 37.4904 584.088 38.9837C581.784 40.4344 580.632 42.4824 580.632 45.1277C580.632 47.5171 581.87 49.5437 584.344 51.2077C586.862 52.8717 592.6 54.9624 601.56 57.4797C611.758 60.3384 618.947 64.0931 623.128 68.7437C627.31 73.3517 629.4 79.1117 629.4 86.0237C629.4 94.7704 626.072 101.682 619.416 106.76C612.76 111.794 604.12 114.312 593.496 114.312Z" fill="black"/>
<path d="M454.067 112.84V45.5118H474.227V58.3758L471.859 55.1758H474.035C476.169 51.7624 479.113 49.0744 482.867 47.1118C486.665 45.1064 490.889 44.1038 495.539 44.1038C502.793 44.1038 508.51 46.2798 512.691 50.6318C516.915 54.9411 519.027 61.0851 519.027 69.0638V112.84H498.355V74.0558C498.355 70.3438 497.459 67.3998 495.667 65.2238C493.875 63.0051 491.081 61.8958 487.283 61.8958C483.699 61.8958 480.713 63.1331 478.323 65.6078C475.934 68.0398 474.739 71.2824 474.739 75.3358V112.84H454.067Z" fill="black"/>
<path d="M412 114.312C401.59 114.312 392.95 111.005 386.08 104.392C379.211 97.7358 375.776 89.3304 375.776 79.1758C375.776 69.0638 379.168 60.7011 385.952 54.0878C392.779 47.4318 401.27 44.1038 411.424 44.1038C421.664 44.1038 429.899 47.2611 436.128 53.5758C442.4 59.8904 445.536 67.8904 445.536 77.5758V84.2318H386.016V73.4158H427.424C427.04 69.7038 425.44 66.6104 422.624 64.1358C419.851 61.6611 416.203 60.4238 411.68 60.4238C406.859 60.4238 402.742 62.1944 399.328 65.7358C395.915 69.2344 394.208 73.8424 394.208 79.5598C394.208 85.3624 396.022 90.0131 399.648 93.5118C403.275 96.9678 407.606 98.6958 412.64 98.6958C415.2 98.6958 417.462 98.3544 419.424 97.6718C421.387 96.9891 423.2 95.9651 424.864 94.5998C426.528 93.1918 428.192 91.1224 429.856 88.3918L444 95.6878C441.27 100.424 438.432 104.05 435.488 106.568C432.587 109.085 429.238 111.005 425.44 112.328C421.686 113.65 417.206 114.312 412 114.312Z" fill="black"/>
<path d="M322.809 100.616L323.385 77.8959L353.081 45.5119H378.169L322.809 100.616ZM309.817 112.84V21.1919H330.361V112.84H309.817ZM355.257 112.84L334.457 80.0079L348.153 65.2239L379.385 112.84H355.257Z" fill="black"/>
<path d="M265.113 114.312C254.873 114.312 246.361 110.941 239.577 104.2C232.793 97.4158 229.401 89.0744 229.401 79.1758C229.401 69.3198 232.793 61.0211 239.577 54.2798C246.404 47.4958 254.916 44.1038 265.113 44.1038C275.353 44.1038 283.887 47.4958 290.713 54.2798C297.54 61.0211 300.953 69.3198 300.953 79.1758C300.953 89.0744 297.54 97.4158 290.713 104.2C283.887 110.941 275.353 114.312 265.113 114.312ZM265.177 95.6238C269.615 95.6238 273.412 94.0664 276.569 90.9518C279.727 87.7944 281.305 83.8691 281.305 79.1758C281.305 74.4824 279.705 70.5784 276.505 67.4638C273.348 64.3491 269.572 62.7918 265.177 62.7918C260.697 62.7918 256.879 64.3491 253.721 67.4638C250.607 70.5784 249.049 74.4824 249.049 79.1758C249.049 83.8691 250.607 87.7944 253.721 90.9518C256.879 94.0664 260.697 95.6238 265.177 95.6238Z" fill="black"/>
<path d="M187.855 112.84V31.0479H211.023V112.84H187.855ZM161.999 41.9919V21.1919H236.367V41.9919H161.999Z" fill="black"/>
<defs>
<linearGradient id="paint0_linear_23_15" x1="77.9764" y1="91.0093" x2="129.999" y2="38.9864" gradientUnits="userSpaceOnUse">
<stop stop-color="#F093FB"/>
<stop offset="1" stop-color="#F5576C"/>
</linearGradient>
<radialGradient id="paint1_radial_23_15" cx="0" cy="0" r="1" gradientUnits="userSpaceOnUse" gradientTransform="translate(103.988 64.9977) rotate(90) scale(26.0116 26.0114)">
<stop stop-color="white" stop-opacity="0"/>
<stop offset="1" stop-color="white" stop-opacity="0.64"/>
</radialGradient>
<linearGradient id="paint2_linear_23_15" x1="38.9888" y1="130" x2="91.0119" y2="77.9767" gradientUnits="userSpaceOnUse">
<stop stop-color="#667EEA"/>
<stop offset="1" stop-color="#764BA2"/>
</linearGradient>
<radialGradient id="paint3_radial_23_15" cx="0" cy="0" r="1" gradientUnits="userSpaceOnUse" gradientTransform="translate(65.0002 103.988) rotate(90) scale(26.0116 26.0114)">
<stop stop-color="white" stop-opacity="0"/>
<stop offset="1" stop-color="white" stop-opacity="0.64"/>
</radialGradient>
<linearGradient id="paint4_linear_23_15" x1="3.8147e-06" y1="91.0093" x2="52.0231" y2="38.9864" gradientUnits="userSpaceOnUse">
<stop stop-color="#4FACFE"/>
<stop offset="1" stop-color="#00F2FE"/>
</linearGradient>
<radialGradient id="paint5_radial_23_15" cx="0" cy="0" r="1" gradientUnits="userSpaceOnUse" gradientTransform="translate(26.0114 64.9977) rotate(90) scale(26.0116 26.0114)">
<stop stop-color="white" stop-opacity="0"/>
<stop offset="1" stop-color="white" stop-opacity="0.64"/>
</radialGradient>
<linearGradient id="paint6_linear_23_15" x1="38.9888" y1="52.0232" x2="91.0119" y2="0.000341049" gradientUnits="userSpaceOnUse">
<stop stop-color="#F6D365"/>
<stop offset="1" stop-color="#FDA085"/>
</linearGradient>
<radialGradient id="paint7_radial_23_15" cx="0" cy="0" r="1" gradientUnits="userSpaceOnUse" gradientTransform="translate(65.0002 26.0116) rotate(90) scale(26.0115 26.0114)">
<stop stop-color="white" stop-opacity="0"/>
<stop offset="1" stop-color="white" stop-opacity="0.64"/>
</radialGradient>
<linearGradient id="paint8_linear_23_15" x1="55.9719" y1="55.9707" x2="74.0274" y2="74.0262" gradientUnits="userSpaceOnUse">
<stop stop-color="#93F9B9"/>
<stop offset="1" stop-color="#1D976C"/>
</linearGradient>
</defs>
</svg>
