<svg width="64" height="64" viewBox="0 0 64 64" fill="none" xmlns="http://www.w3.org/2000/svg">
<g clip-path="url(#clip0_12_26)">
<path d="M32 64C46.0222 64 53.8174 64 58.9087 58.9087C64 53.8174 64 46.0222 64 32C64 17.9778 64 10.1826 58.9087 5.09131C53.8174 -9.53674e-07 46.0222 0 32 0C17.9778 0 10.1826 -9.53674e-07 5.09131 5.09131C-9.53674e-07 10.1826 0 17.9778 0 32C0 46.0222 -9.53674e-07 53.8174 5.09131 58.9087C10.1826 64 17.9778 64 32 64Z" fill="url(#paint0_linear_12_26)"/>
<path d="M51 40.55V46.25C51 49.0999 49.1 50.9999 46.25 50.9999H20.6C21.379 50.9999 22.177 50.8859 22.918 50.6389C23.127 50.5629 23.336 50.4869 23.545 50.3919C24.21 50.1259 24.856 49.7459 25.426 49.2519C25.597 49.1189 25.787 48.9479 25.958 48.7769L26.034 48.7009L38.954 35.8H46.25C49.1 35.8 51 37.7 51 40.55Z" fill="url(#paint1_linear_12_26)" fill-opacity="0.36"/>
<path d="M44.102 30.6509L38.953 35.7999L26.033 48.7008C27.3629 47.3328 28.199 45.4518 28.199 43.3998V25.0459L33.348 19.897C35.362 17.883 38.06 17.883 40.074 19.897L44.102 23.9249C46.116 25.9389 46.116 28.637 44.102 30.6509Z" fill="url(#paint2_linear_12_26)" fill-opacity="0.64"/>
<path d="M23.45 13H17.75C14.9 13 13 14.9 13 17.75V43.3997C13 43.9127 13.057 44.4257 13.152 44.9197C13.209 45.1667 13.266 45.4137 13.342 45.6607C13.437 45.9457 13.532 46.2307 13.646 46.4967C13.665 46.5157 13.665 46.5347 13.665 46.5347C13.684 46.5347 13.684 46.5347 13.665 46.5537C13.931 47.0857 14.235 47.5987 14.596 48.0737C14.805 48.3207 15.014 48.5487 15.223 48.7767C15.432 49.0047 15.66 49.1947 15.907 49.3847L15.926 49.4037C16.401 49.7647 16.914 50.0687 17.446 50.3347C17.465 50.3157 17.465 50.3157 17.465 50.3347C17.75 50.4677 18.035 50.5627 18.339 50.6577C18.586 50.7337 18.833 50.7907 19.08 50.8477C19.574 50.9427 20.087 50.9997 20.6 50.9997C21.379 50.9997 22.177 50.8857 22.918 50.6387C23.127 50.5627 23.336 50.4867 23.545 50.3917C24.21 50.1257 24.856 49.7457 25.426 49.2517C25.597 49.1187 25.787 48.9477 25.958 48.7767L26.034 48.7007C27.364 47.3327 28.2 45.4517 28.2 43.3997V17.75C28.2 14.9 26.3 13 23.45 13ZM20.6 46.2497C19.023 46.2497 17.75 44.9767 17.75 43.3997C17.75 41.8227 19.023 40.5497 20.6 40.5497C22.177 40.5497 23.45 41.8227 23.45 43.3997C23.45 44.9767 22.177 46.2497 20.6 46.2497Z" fill="url(#paint3_linear_12_26)"/>
</g>
<defs>
<linearGradient id="paint0_linear_12_26" x1="0" y1="0" x2="64" y2="64" gradientUnits="userSpaceOnUse">
<stop stop-color="#F093FB"/>
<stop offset="1" stop-color="#F5576C"/>
</linearGradient>
<linearGradient id="paint1_linear_12_26" x1="26.2457" y1="35.8" x2="41.056" y2="54.4189" gradientUnits="userSpaceOnUse">
<stop stop-color="#F2F3FF"/>
<stop offset="1" stop-color="#EFE5FF"/>
</linearGradient>
<linearGradient id="paint2_linear_12_26" x1="29.6692" y1="18.3865" x2="50.8005" y2="26.9655" gradientUnits="userSpaceOnUse">
<stop stop-color="#F2F3FF"/>
<stop offset="1" stop-color="#EFE5FF"/>
</linearGradient>
<linearGradient id="paint3_linear_12_26" x1="15.8229" y1="13" x2="33.7953" y2="17.5188" gradientUnits="userSpaceOnUse">
<stop stop-color="white"/>
<stop offset="1" stop-color="#F6F2FF"/>
</linearGradient>
<clipPath id="clip0_12_26">
<rect width="64" height="64" fill="white"/>
</clipPath>
</defs>
</svg>
