<svg width="64" height="64" viewBox="0 0 64 64" fill="none" xmlns="http://www.w3.org/2000/svg">
<g clip-path="url(#clip0_12_41)">
<path d="M32 64C46.0222 64 53.8174 64 58.9087 58.9087C64 53.8174 64 46.0222 64 32C64 17.9778 64 10.1826 58.9087 5.09131C53.8174 -9.53674e-07 46.0222 0 32 0C17.9778 0 10.1826 -9.53674e-07 5.09131 5.09131C-9.53674e-07 10.1826 0 17.9778 0 32C0 46.0222 -9.53674e-07 53.8174 5.09131 58.9087C10.1826 64 17.9778 64 32 64Z" fill="url(#paint0_linear_12_41)"/>
<circle cx="17.5" cy="46.5" r="4.3" fill="url(#paint1_linear_12_41)" fill-opacity="0.5" stroke="url(#paint2_linear_12_41)" stroke-width="1.6"/>
<circle cx="46.5" cy="17.5" r="4.3" fill="url(#paint3_linear_12_41)" fill-opacity="0.5" stroke="url(#paint4_linear_12_41)" stroke-width="1.6"/>
<path d="M38.2229 25C38.6522 25.0001 39 25.348 39.0002 25.7773V35.1113C39.0002 35.4258 38.8113 35.7096 38.5208 35.8301C38.2302 35.9505 37.8956 35.8836 37.6731 35.6611L33.0061 30.9941L33.5559 31.5449L26.3274 38.7725C26.0236 39.0761 25.5315 39.0762 25.2278 38.7725C24.9241 38.4687 24.9241 37.9766 25.2278 37.6729L32.4553 30.4443L28.3391 26.3281C28.1167 26.1058 28.05 25.771 28.1702 25.4805C28.2906 25.1898 28.5744 25 28.8889 25H38.2229Z" fill="url(#paint5_linear_12_41)"/>
</g>
<defs>
<linearGradient id="paint0_linear_12_41" x1="0" y1="0" x2="64" y2="64" gradientUnits="userSpaceOnUse">
<stop stop-color="#4FACFE"/>
<stop offset="1" stop-color="#00F2FE"/>
</linearGradient>
<linearGradient id="paint1_linear_12_41" x1="17.5" y1="43" x2="17.5" y2="50" gradientUnits="userSpaceOnUse">
<stop stop-color="#F6F2FF"/>
<stop offset="1" stop-color="white"/>
</linearGradient>
<linearGradient id="paint2_linear_12_41" x1="15.3" y1="43" x2="21.6078" y2="46.9649" gradientUnits="userSpaceOnUse">
<stop stop-color="white"/>
<stop offset="1" stop-color="#F6F2FF"/>
</linearGradient>
<linearGradient id="paint3_linear_12_41" x1="46.5" y1="14" x2="46.5" y2="21" gradientUnits="userSpaceOnUse">
<stop stop-color="#F6F2FF"/>
<stop offset="1" stop-color="white"/>
</linearGradient>
<linearGradient id="paint4_linear_12_41" x1="44.3" y1="14" x2="50.6078" y2="17.9649" gradientUnits="userSpaceOnUse">
<stop stop-color="white"/>
<stop offset="1" stop-color="#F6F2FF"/>
</linearGradient>
<linearGradient id="paint5_linear_12_41" x1="38.5186" y1="25" x2="32.7501" y2="41.107" gradientUnits="userSpaceOnUse">
<stop stop-color="white"/>
<stop offset="1" stop-color="#F6F2FF" stop-opacity="0"/>
</linearGradient>
<clipPath id="clip0_12_41">
<rect width="64" height="64" fill="white"/>
</clipPath>
</defs>
</svg>
