<svg width="64" height="64" viewBox="0 0 64 64" fill="none" xmlns="http://www.w3.org/2000/svg">
<g clip-path="url(#clip0_22_2)">
<path d="M32 64C46.0222 64 53.8174 64 58.9087 58.9087C64 53.8174 64 46.0222 64 32C64 17.9778 64 10.1826 58.9087 5.09131C53.8174 -9.53674e-07 46.0222 0 32 0C17.9778 0 10.1826 -9.53674e-07 5.09131 5.09131C-9.53674e-07 10.1826 0 17.9778 0 32C0 46.0222 -9.53674e-07 53.8174 5.09131 58.9087C10.1826 64 17.9778 64 32 64Z" fill="url(#paint0_linear_22_2)"/>
<path d="M45.7638 29.5211V29.8367C45.7638 30.7502 45.0164 31.4976 44.1028 31.4976L19.8972 31.5143C18.9836 31.5143 18.2362 30.7668 18.2362 29.8533V29.5211C18.2362 29.1889 18.2528 28.8567 18.286 28.5245C18.6182 23.4087 21.7741 20.2529 26.8899 19.9207C27.2221 19.8875 27.5543 19.8708 27.8864 19.8708H36.1136C36.4458 19.8708 36.778 19.8875 37.1101 19.9207C42.2259 20.2529 45.3818 23.4087 45.714 28.5245C45.7472 28.8567 45.7638 29.1889 45.7638 29.5211Z" fill="#90F0CB" stroke="#B5FFE2" stroke-width="2"/>
<path d="M48.1966 28.4097H15.8034C14.8136 28.4097 14.0038 29.2195 14.0038 30.2093V39.5493C14.0038 39.9092 14.0218 40.2692 14.0578 40.6291C14.4177 46.1719 17.837 49.5912 23.3798 49.9511C23.7397 49.9871 24.0997 50.0051 24.4596 50.0051H39.5404C39.9003 50.0051 40.2603 49.9871 40.6202 49.9511C46.163 49.5912 49.5823 46.1719 49.9422 40.6291C49.9782 40.2692 49.9962 39.9092 49.9962 39.5493V30.2093C49.9962 29.2195 49.1864 28.4097 48.1966 28.4097ZM24.8015 39.4773C25.4134 40.3771 26.2412 41.115 27.195 41.6009C27.8789 41.9248 28.1488 42.7347 27.8069 43.4185C27.5729 43.8864 27.087 44.1564 26.6011 44.1564C26.4032 44.1564 26.1872 44.1024 26.0073 44.0124C24.6036 43.3285 23.4158 42.2668 22.57 40.989C21.8501 39.9092 21.8501 38.5055 22.57 37.4258C23.4158 36.148 24.6036 35.0863 26.0073 34.4024C26.6731 34.0605 27.4829 34.3304 27.8069 34.9963C28.1488 35.6801 27.8789 36.49 27.195 36.8139C26.2412 37.2998 25.4134 38.0376 24.8015 38.9375C24.6935 39.0994 24.6935 39.3154 24.8015 39.4773ZM41.8079 40.989C40.9441 42.2668 39.7564 43.3285 38.3707 44.0124C38.1727 44.1024 37.9747 44.1564 37.7768 44.1564C37.2729 44.1564 36.805 43.8864 36.571 43.4185C36.2291 42.7347 36.499 41.9248 37.1649 41.6009C38.1367 41.115 38.9645 40.3771 39.5584 39.4773C39.6844 39.3154 39.6844 39.0994 39.5584 38.9375C38.9645 38.0376 38.1367 37.2998 37.1649 36.8139C36.499 36.49 36.2291 35.6801 36.571 34.9963C36.895 34.3304 37.7048 34.0605 38.3707 34.4024C39.7564 35.0863 40.9441 36.148 41.8079 37.4258C42.5278 38.5055 42.5278 39.9092 41.8079 40.989Z" fill="#B5FFE3"/>
</g>
<defs>
<linearGradient id="paint0_linear_22_2" x1="0" y1="0" x2="64" y2="64" gradientUnits="userSpaceOnUse">
<stop stop-color="#93F9B9"/>
<stop offset="1" stop-color="#1D976C"/>
</linearGradient>
<clipPath id="clip0_22_2">
<rect width="64" height="64" fill="white"/>
</clipPath>
</defs>
</svg>
