<svg width="64" height="64" viewBox="0 0 64 64" fill="none" xmlns="http://www.w3.org/2000/svg">
<g clip-path="url(#clip0_13_170)">
<path d="M32 64C46.0222 64 53.8174 64 58.9087 58.9087C64 53.8174 64 46.0222 64 32C64 17.9778 64 10.1826 58.9087 5.09131C53.8174 -9.53674e-07 46.0222 0 32 0C17.9778 0 10.1826 -9.53674e-07 5.09131 5.09131C-9.53674e-07 10.1826 0 17.9778 0 32C0 46.0222 -9.53674e-07 53.8174 5.09131 58.9087C10.1826 64 17.9778 64 32 64Z" fill="url(#paint0_linear_13_170)"/>
<path d="M14.0001 50C14.5339 49.093 15.1549 48.3605 15.8147 47.7535C21.9125 43.2652 28.9264 43.3291 35.9923 39.1226C42.4222 35.4426 52.2481 28.266 51.1468 17.0178C50.9311 15.912 50.5331 14.9066 50 14C49.4662 14.9078 48.8521 15.6483 48.1996 16.2724C42.1592 20.9637 35.2788 20.9311 28.2701 25.1094C21.9084 28.8 12.0987 35.6373 12.879 46.9643C13.0765 48.0787 13.4668 49.0946 14.0001 50Z" fill="white" fill-opacity="0.32"/>
<path d="M14.0001 50C14.167 49.0935 14.4405 48.2636 14.8055 47.4822C18.539 40.6431 26.514 38.3347 33.3378 34.3055C39.9667 30.4543 48.78 25.7558 50.1337 16.7616C50.2165 15.8214 50.1663 14.907 50 14C49.8329 14.9073 49.5668 15.739 49.2127 16.5287C45.6273 23.4739 37.7343 25.9194 30.9246 29.9264C24.3208 33.7944 15.4722 38.2594 13.8881 47.2356C13.791 48.1756 13.8336 49.094 14.0001 50Z" fill="url(#paint1_linear_13_170)"/>
</g>
<defs>
<linearGradient id="paint0_linear_13_170" x1="0" y1="0" x2="64" y2="64" gradientUnits="userSpaceOnUse">
<stop stop-color="#F6D365"/>
<stop offset="1" stop-color="#FDA085"/>
</linearGradient>
<linearGradient id="paint1_linear_13_170" x1="20.6858" y1="14" x2="53.1258" y2="34.3908" gradientUnits="userSpaceOnUse">
<stop stop-color="white"/>
<stop offset="1" stop-color="#F6F2FF"/>
</linearGradient>
<clipPath id="clip0_13_170">
<rect width="64" height="64" fill="white"/>
</clipPath>
</defs>
</svg>
