<svg width="64" height="64" viewBox="0 0 64 64" fill="none" xmlns="http://www.w3.org/2000/svg">
<g clip-path="url(#clip0_12_5)">
<path d="M32 64C46.0222 64 53.8174 64 58.9087 58.9087C64 53.8174 64 46.0222 64 32C64 17.9778 64 10.1826 58.9087 5.09131C53.8174 -9.53674e-07 46.0222 0 32 0C17.9778 0 10.1826 -9.53674e-07 5.09131 5.09131C-9.53674e-07 10.1826 0 17.9778 0 32C0 46.0222 -9.53674e-07 53.8174 5.09131 58.9087C10.1826 64 17.9778 64 32 64Z" fill="url(#paint0_linear_12_5)"/>
<path d="M36.5833 26.6103V23.7212H11.1233C10.5029 23.7212 10 24.2188 10 24.8324V39.168C10 39.7815 10.5029 40.2792 11.1233 40.2792H36.5833V37.3901H12.9206V26.6103H36.5833Z" fill="white"/>
<path d="M52.8467 23.7212H43.0026V26.6103H51.0005V37.3901H43.0026V40.2792H52.8464C53.4834 40.2792 54.0002 39.7815 54.0002 39.168V24.8324C54.0004 24.2188 53.4837 23.7212 52.8467 23.7212Z" fill="white"/>
<path d="M44.0094 41.9379H41.3948C41.3416 41.9379 41.2971 41.8933 41.2971 41.8402V22.1601C41.2971 22.1069 41.3416 22.0622 41.3948 22.0622H44.0094C44.6229 22.0622 45.1206 21.5646 45.1206 20.951V20.2843C45.1206 19.6707 44.6229 19.1731 44.0094 19.1731H41.3948C40.8462 19.1731 40.3177 19.3212 39.8525 19.6036C39.3872 19.3212 38.8588 19.1731 38.3103 19.1731H35.6958C35.0821 19.1731 34.5846 19.6707 34.5846 20.2843V20.951C34.5846 21.5646 35.0821 22.0622 35.6958 22.0622H38.3103C38.3633 22.0622 38.408 22.107 38.408 22.1601V41.8401C38.408 41.8931 38.3633 41.9378 38.3103 41.9378H35.6958C35.0821 41.9378 34.5846 42.4355 34.5846 43.049V43.7157C34.5846 44.3292 35.0821 44.8269 35.6958 44.8269H38.3103C38.8588 44.8269 39.3873 44.6788 39.8525 44.3964C40.3177 44.6788 40.8462 44.8269 41.3948 44.8269H44.0094C44.6229 44.8269 45.1206 44.3292 45.1206 43.7157V43.049C45.1206 42.4355 44.623 41.9379 44.0094 41.9379Z" fill="white"/>
<rect width="23.8333" height="11" transform="translate(12.75 26.5)" fill="url(#paint1_linear_12_5)" fill-opacity="0.48"/>
<rect width="8.25" height="11" transform="translate(43 26.5)" fill="url(#paint2_linear_12_5)" fill-opacity="0.48"/>
</g>
<defs>
<linearGradient id="paint0_linear_12_5" x1="0" y1="0" x2="64" y2="64" gradientUnits="userSpaceOnUse">
<stop stop-color="#667EEA"/>
<stop offset="1" stop-color="#764BA2"/>
</linearGradient>
<linearGradient id="paint1_linear_12_5" x1="4.42619" y1="2.49914e-07" x2="14.9215" y2="14.2936" gradientUnits="userSpaceOnUse">
<stop stop-color="#F2F3FF"/>
<stop offset="1" stop-color="#EFE5FF"/>
</linearGradient>
<linearGradient id="paint2_linear_12_5" x1="1.53214" y1="2.49914e-07" x2="10.0177" y2="4.00034" gradientUnits="userSpaceOnUse">
<stop stop-color="#F2F3FF"/>
<stop offset="1" stop-color="#EFE5FF"/>
</linearGradient>
<clipPath id="clip0_12_5">
<rect width="64" height="64" fill="white"/>
</clipPath>
</defs>
</svg>
